<svg viewBox="0 0 640 640" xmlns="http://www.w3.org/2000/svg">
  <path fill="#FFFFFF" d="M395.9,484.2l-126.9-61c-12.5-6-17.9-21.2-11.8-33.8l61-126.9c6-12.5,21.2-17.9,33.8-11.8c17.2,8.3,27.1,13,27.1,13l-0.1-109.2l16.7-0.1l0.1,117.1c0,0,57.4,24.2,83.1,40.1c3.7,2.3,10.2,6.8,12.9,14.4c2.1,6.1,2,13.1-1,19.3l-61,126.9C423.6,484.9,408.4,490.3,395.9,484.2z"/>
  <path fill="#609926" d="M622.7,149.8c-4.1-4.1-9.6-4-9.6-4s-117.2,6.6-177.9,8c-13.3,0.3-26.5,0.6-39.6,0.7c0,39.1,0,78.2,0,117.2c-5.5-2.6-11.1-5.3-16.6-7.9c0-36.4-0.1-109.2-0.1-109.2c-29,0.4-89.2-2.2-89.2-2.2s-141.4-7.1-156.8-8.5c-9.8-0.6-22.5-2.1-39,1.5c-8.7,1.8-33.5,7.4-53.8,26.9C-4.9,212.4,6.6,276.2,8,285.8c1.7,11.7,6.9,44.2,31.7,72.5c45.8,56.1,144.4,54.8,144.4,54.8s12.1,28.9,30.6,55.5c25,33.1,50.7,58.9,75.7,62c63,0,188.9-0.1,188.9-0.1s12,0.1,28.3-10.3c14-8.5,26.5-23.4,26.5-23.4s12.9-13.8,30.9-45.3c5.5-9.7,10.1-19.1,14.1-28c0,0,55.2-117.1,55.2-231.1C633.2,157.9,624.7,151.8,622.7,149.8z"/>
</svg>
